<?xml version="1.0" encoding="UTF-8"?>
<svg version="1.1" xmlns="http://www.w3.org/2000/svg" width="24" height="24">
<path d="M0 0 C1.98 0 3.96 0 6 0 C6.33 1.32 6.66 2.64 7 4 C8.32 4 9.64 4 11 4 C11 9.28 11 14.56 11 20 C5.72 20 0.44 20 -5 20 C-5 14.72 -5 9.44 -5 4 C-3.68 4 -2.36 4 -1 4 C-0.67 2.68 -0.34 1.36 0 0 Z M-3 6 C-3 9.96 -3 13.92 -3 18 C0.96 18 4.92 18 9 18 C9 14.04 9 10.08 9 6 C8.34 6 7.68 6 7 6 C7 6.99 7 7.98 7 9 C6.34 9 5.68 9 5 9 C5 8.01 5 7.02 5 6 C3.68 6 2.36 6 1 6 C1 6.99 1 7.98 1 9 C0.34 9 -0.32 9 -1 9 C-1 8.01 -1 7.02 -1 6 C-1.66 6 -2.32 6 -3 6 Z " fill="#000000" transform="translate(9,2)"/>
</svg>
