<?xml version="1.0" encoding="UTF-8"?>
<svg version="1.1" xmlns="http://www.w3.org/2000/svg" width="24" height="24">
<path d="M0 0 C2.92879371 0.62759865 5.36095629 1.58622659 8 3 C8.6496875 2.2575 8.6496875 2.2575 9.3125 1.5 C11 0 11 0 14 0 C13.37240135 2.92879371 12.41377341 5.36095629 11 8 C11.495 8.433125 11.99 8.86625 12.5 9.3125 C14 11 14 11 14 14 C11.07120629 13.37240135 8.63904371 12.41377341 6 11 C5.566875 11.495 5.13375 11.99 4.6875 12.5 C3 14 3 14 0 14 C0.62759865 11.07120629 1.58622659 8.63904371 3 6 C2.505 5.566875 2.01 5.13375 1.5 4.6875 C0 3 0 3 0 0 Z " fill="#000000" transform="translate(5,5)"/>
</svg>
