<?xml version="1.0" encoding="UTF-8"?>
<svg version="1.1" xmlns="http://www.w3.org/2000/svg" width="24" height="24">
<path d="M0 0 C-0.33 5.61 -0.66 11.22 -1 17 C-5.62 17 -10.24 17 -15 17 C-15.33 11.39 -15.66 5.78 -16 0 C-10.17910189 -1.16417962 -5.87721445 -0.63728831 0 0 Z M-13 2 C-13 6.29 -13 10.58 -13 15 C-9.7 15 -6.4 15 -3 15 C-3 10.71 -3 6.42 -3 2 C-6.3 2 -9.6 2 -13 2 Z " fill="#000000" transform="translate(20,4)"/>
<path d="M0 0 C0.66 0 1.32 0 2 0 C2 2.97 2 5.94 2 9 C1.34 9 0.68 9 0 9 C0 6.03 0 3.06 0 0 Z " fill="#000000" transform="translate(13,8)"/>
<path d="M0 0 C0.66 0 1.32 0 2 0 C2 2.97 2 5.94 2 9 C1.34 9 0.68 9 0 9 C0 6.03 0 3.06 0 0 Z " fill="#000000" transform="translate(9,8)"/>
</svg>
