<?xml version="1.0" encoding="UTF-8"?>
<svg version="1.1" xmlns="http://www.w3.org/2000/svg" width="512" height="512">
<path d="M0 0 C4.91452845 4.54112386 9.63376648 9.13286763 13.92529297 14.27832031 C16.58502286 17.38586187 19.52620986 20.21721079 22.45654297 23.06738281 C26.36863605 21.47322779 28.82872383 18.9284495 31.76904297 15.94238281 C32.25542236 15.4502832 32.74180176 14.95818359 33.24291992 14.45117188 C35.98210004 11.6569991 38.60872757 8.79667049 41.14404297 5.81738281 C44.58464382 1.80606619 48.38946444 -1.56931363 52.45654297 -4.93261719 C53.56449219 -5.87234375 53.56449219 -5.87234375 54.69482422 -6.83105469 C83.07602923 -30.33496587 118.16007787 -41.77366665 155.00292969 -38.72167969 C191.6064248 -35.10042329 224.19164996 -18.47532286 247.95849609 9.85791016 C268.83992746 35.97375147 279.67848301 67.06339247 279.70654297 100.44238281 C279.70755508 101.51951538 279.70755508 101.51951538 279.70858765 102.6184082 C279.69248714 113.39341195 279.23840528 123.59908969 276.45654297 134.06738281 C276.28493652 134.71980957 276.11333008 135.37223633 275.93652344 136.04443359 C272.31132134 149.49234592 267.01633697 162.29162447 259.76904297 174.19238281 C259.24564331 175.06830078 259.24564331 175.06830078 258.71166992 175.96191406 C249.12006552 191.08863506 235.28969056 203.45760937 222.64404297 215.94238281 C220.0127948 218.54581652 217.3831302 221.15080319 214.75642395 223.75881958 C213.136454 225.36673044 211.51382146 226.97196516 209.88798523 228.57394409 C209.14643692 229.30896149 208.40488861 230.04397888 207.64086914 230.80126953 C206.99977707 231.43410858 206.358685 232.06694763 205.69816589 232.71896362 C203.77490908 234.73384898 201.94916798 236.78905768 200.12788391 238.89505005 C196.74288335 242.78721687 193.19275206 246.46037817 189.53076172 250.09082031 C188.87774078 250.74238098 188.22471985 251.39394165 187.5519104 252.06524658 C186.14808387 253.46529767 184.74310444 254.86419356 183.33706665 256.26202393 C181.1058341 258.48037102 178.87784705 260.70193343 176.65063477 262.92431641 C171.12113155 268.44052411 165.58617639 273.95125083 160.0513916 279.4621582 C155.36411932 284.12963082 150.67894725 288.79919288 145.99649048 293.47149658 C143.81229942 295.64925378 141.62509503 297.82395243 139.43774414 299.99853516 C138.08578801 301.34685534 136.73397401 302.69531804 135.38232422 304.04394531 C134.78263824 304.63846497 134.18295227 305.23298462 133.56509399 305.84552002 C130.58180472 308.82844141 127.7224803 311.87032058 124.96228027 315.06164551 C121.61007849 318.9366504 118.07624761 322.57618867 114.43896484 326.18261719 C113.77619034 326.84393143 113.11341583 327.50524567 112.43055725 328.18659973 C111.00544949 329.60793139 109.57918879 331.02810782 108.15187073 332.44721985 C105.88703479 334.69917337 103.62544147 336.95433977 101.36462402 339.21032715 C95.75164425 344.81000954 90.13321337 350.40421224 84.51495361 355.99859619 C79.75722238 360.73652988 75.00158975 365.47655157 70.24867249 370.21931458 C68.03124219 372.43030968 65.81079883 374.63824722 63.59020996 376.84606934 C62.21803089 378.21461254 60.8459939 379.58329823 59.47412109 380.95214844 C58.86508438 381.55601883 58.25604767 382.15988922 57.6285553 382.78205872 C53.93073268 386.47943195 50.43333753 390.30286924 47.02222443 394.26654816 C44.73346332 396.89906342 42.3396341 399.39157393 39.89404297 401.87988281 C39.00587891 402.79382813 38.11771484 403.70777344 37.20263672 404.64941406 C33.06556382 408.29215677 29.15547139 410.49428211 23.58154297 410.56738281 C22.80037109 410.59832031 22.01919922 410.62925781 21.21435547 410.66113281 C13.62412431 409.0269754 8.11383233 403.14921059 2.89404297 397.75488281 C1.96301758 396.81612305 1.96301758 396.81612305 1.01318359 395.85839844 C-2.01443299 392.78026896 -4.91912846 389.63835753 -7.73838806 386.3684845 C-11.1731368 382.43897645 -14.76403569 378.71722742 -18.46923828 375.04394531 C-19.12225922 374.39238464 -19.77528015 373.74082397 -20.4480896 373.06951904 C-21.85191613 371.66946795 -23.25689556 370.27057206 -24.66293335 368.8727417 C-26.8941659 366.6543946 -29.12215295 364.43283219 -31.34936523 362.21044922 C-36.07791657 357.49326753 -40.81038904 352.78003205 -45.54345703 348.06738281 C-51.03265761 342.601863 -56.52019469 337.13469429 -62.00350952 331.66326904 C-64.18770058 329.48551184 -66.37490497 327.3108132 -68.56225586 325.13623047 C-69.91421199 323.78791029 -71.26602599 322.43944758 -72.61767578 321.09082031 C-73.21736176 320.49630066 -73.81704773 319.90178101 -74.43490601 319.28924561 C-78.05669588 315.66790235 -81.45094629 311.90827795 -84.80119324 308.03549194 C-87.56605243 304.91223091 -90.50794604 301.97972589 -93.46923828 299.04394531 C-94.12225922 298.39238464 -94.77528015 297.74082397 -95.4480896 297.06951904 C-96.85191613 295.66946795 -98.25689556 294.27057206 -99.66293335 292.8727417 C-101.8941659 290.6543946 -104.12215295 288.43283219 -106.34936523 286.21044922 C-111.07791657 281.49326753 -115.81038904 276.78003205 -120.54345703 272.06738281 C-126.03265761 266.601863 -131.52019469 261.13469429 -137.00350952 255.66326904 C-139.18770058 253.48551184 -141.37490497 251.3108132 -143.56225586 249.13623047 C-144.91421199 247.78791029 -146.26602599 246.43944758 -147.61767578 245.09082031 C-148.21736176 244.49630066 -148.81704773 243.90178101 -149.43490601 243.28924561 C-153.11477576 239.60982964 -156.57503777 235.79181498 -159.97870636 231.85602188 C-161.76354913 229.8157994 -163.62561036 227.88349077 -165.56005859 225.98486328 C-166.26479309 225.28988739 -166.96952759 224.5949115 -167.69561768 223.87887573 C-168.80365753 222.79269455 -168.80365753 222.79269455 -169.93408203 221.68457031 C-171.54766196 220.08851805 -173.16093336 218.49215382 -174.77392578 216.89550781 C-177.27593253 214.42426944 -179.7801607 211.9554321 -182.29003906 209.4921875 C-205.46765309 186.72135865 -223.78011454 162.51133765 -230.54345703 130.06738281 C-230.7186084 129.23255371 -230.89375977 128.39772461 -231.07421875 127.53759766 C-232.71861134 118.88436669 -232.94248098 110.34025088 -232.91845703 101.56738281 C-232.91791321 100.81859863 -232.91736938 100.06981445 -232.91680908 99.29833984 C-232.87636309 87.16066018 -231.96180599 75.77405733 -228.54345703 64.06738281 C-228.32915039 63.30619141 -228.11484375 62.545 -227.89404297 61.76074219 C-217.77970834 26.57404674 -194.35913174 -4.30964587 -162.50292969 -22.54248047 C-147.97818368 -30.48702999 -131.87601873 -35.43375524 -115.54345703 -37.93261719 C-114.31949219 -38.12791016 -114.31949219 -38.12791016 -113.07080078 -38.32714844 C-70.68447926 -43.77993423 -31.10481596 -28.25921323 0 0 Z " fill="#F44235" transform="translate(232.54345703125,80.9326171875)"/>
</svg>
