<?xml version="1.0" encoding="UTF-8"?>
<svg version="1.1" xmlns="http://www.w3.org/2000/svg" width="512" height="512">
<path d="M0 0 C1.36318359 0.73863281 1.36318359 0.73863281 2.75390625 1.4921875 C16.44272128 9.27042269 27.3836667 19.97767249 38.3125 31.125 C39.64967589 32.47726963 40.98756281 33.82883655 42.32617188 35.1796875 C45.55900661 38.44511052 48.78217119 41.71979157 52 45 C55.28009039 43.56698626 57.42976886 41.80531117 59.93359375 39.26171875 C60.66513672 38.52373047 61.39667969 37.78574219 62.15039062 37.02539062 C63.28250977 35.86813477 63.28250977 35.86813477 64.4375 34.6875 C65.18837891 33.92759766 65.93925781 33.16769531 66.71289062 32.38476562 C68.16724878 30.91249981 69.61955961 29.43820808 71.06958008 27.96166992 C72.65488732 26.35069943 74.24861519 24.7496078 75.8515625 23.15625 C77.09953619 21.90373822 78.33327776 20.63603682 79.52734375 19.33203125 C98.21252265 -0.8024136 126.45825373 -11.70231511 153 -16 C154.37285156 -16.22623047 154.37285156 -16.22623047 155.7734375 -16.45703125 C189.51486657 -20.77547354 224.91292892 -11.60270281 252.25 8.4375 C257.75200597 12.69735323 262.94093305 17.22571496 268 22 C268.73734375 22.67289063 269.4746875 23.34578125 270.234375 24.0390625 C292.76003034 45.36654469 307.71802252 78.45302336 309.16113281 109.46240234 C309.20715268 113.43348908 309.24666149 117.40364178 309.25 121.375 C309.25101212 122.45213257 309.25101212 122.45213257 309.25204468 123.55102539 C309.23594417 134.32602913 308.78186231 144.53170688 306 155 C305.82839355 155.65242676 305.65678711 156.30485352 305.47998047 156.97705078 C296.15738927 191.55978184 274.61069173 215.61308646 249.75 240.25 C246.74179675 243.23137851 243.73709545 246.21622562 240.734375 249.203125 C240.0613031 249.86789856 239.3882312 250.53267212 238.69476318 251.21759033 C238.05009094 251.85895935 237.4054187 252.50032837 236.74121094 253.16113281 C236.18592712 253.71117981 235.63064331 254.26122681 235.05853271 254.82794189 C233.21159194 256.77673904 231.45488091 258.77052159 229.69903564 260.80096436 C226.30371106 264.70086225 222.74516469 268.38411692 219.07421875 272.0234375 C218.42119781 272.67499817 217.76817688 273.32655884 217.09536743 273.99786377 C215.6915409 275.39791486 214.28656147 276.79681075 212.88052368 278.19464111 C210.64929113 280.41298821 208.42130408 282.63455062 206.1940918 284.85693359 C200.66458859 290.3731413 195.12963343 295.88386801 189.59484863 301.39477539 C184.90757635 306.062248 180.22240429 310.73181006 175.53994751 315.40411377 C173.35575645 317.58187097 171.16855206 319.75656961 168.98120117 321.93115234 C167.62924505 323.27947252 166.27743104 324.62793523 164.92578125 325.9765625 C164.32609528 326.57108215 163.7264093 327.16560181 163.10855103 327.77813721 C160.12526175 330.7610586 157.26593733 333.80293776 154.5057373 336.9942627 C151.15353552 340.86926759 147.61970464 344.50880586 143.98242188 348.11523438 C143.31964737 348.77654861 142.65687286 349.43786285 141.97401428 350.11921692 C140.54890652 351.54054857 139.12264582 352.96072501 137.69532776 354.37983704 C135.43049183 356.63179056 133.1688985 358.88695696 130.90808105 361.14294434 C125.29510128 366.74262673 119.67667041 372.33682943 114.05841064 377.93121338 C109.30067941 382.66914707 104.54504678 387.40916875 99.79212952 392.15193176 C97.57469922 394.36292687 95.35425586 396.57086441 93.13366699 398.77868652 C91.76148793 400.14722973 90.38945093 401.51591541 89.01757812 402.88476562 C88.40854141 403.48863602 87.7995047 404.09250641 87.17201233 404.7146759 C83.47418971 408.41204914 79.97679456 412.23548643 76.56568146 416.19916534 C74.27692035 418.8316806 71.88309113 421.32419112 69.4375 423.8125 C68.54933594 424.72644531 67.66117187 425.64039063 66.74609375 426.58203125 C62.60902085 430.22477396 58.69892842 432.4268993 53.125 432.5 C52.34382812 432.5309375 51.56265625 432.561875 50.7578125 432.59375 C43.16758134 430.95959258 37.65728936 425.08182777 32.4375 419.6875 C31.50647461 418.74874023 31.50647461 418.74874023 30.55664062 417.79101562 C27.52902404 414.71288615 24.62432857 411.57097472 21.80506897 408.30110168 C18.37032023 404.37159364 14.77942134 400.64984461 11.07421875 396.9765625 C10.42119781 396.32500183 9.76817688 395.67344116 9.09536743 395.00213623 C7.6915409 393.60208514 6.28656147 392.20318925 4.88052368 390.80535889 C2.64929113 388.58701179 0.42130408 386.36544938 -1.8059082 384.14306641 C-6.53445954 379.42588472 -11.26693201 374.71264924 -16 370 C-21.48920057 364.53448019 -26.97673766 359.06731148 -32.46005249 353.59588623 C-34.64424355 351.41812903 -36.83144794 349.24343039 -39.01879883 347.06884766 C-40.37075495 345.72052748 -41.72256896 344.37206477 -43.07421875 343.0234375 C-43.67390472 342.42891785 -44.2735907 341.83439819 -44.89144897 341.22186279 C-48.51323885 337.60051954 -51.90748926 333.84089514 -55.25773621 329.96810913 C-58.02259539 326.8448481 -60.96448901 323.91234308 -63.92578125 320.9765625 C-64.57880219 320.32500183 -65.23182312 319.67344116 -65.90463257 319.00213623 C-67.3084591 317.60208514 -68.71343853 316.20318925 -70.11947632 314.80535889 C-72.35070887 312.58701179 -74.57869592 310.36544938 -76.8059082 308.14306641 C-81.53445954 303.42588472 -86.26693201 298.71264924 -91 294 C-96.48920057 288.53448019 -101.97673766 283.06731148 -107.46005249 277.59588623 C-109.64424355 275.41812903 -111.83144794 273.24343039 -114.01879883 271.06884766 C-115.37075495 269.72052748 -116.72256896 268.37206477 -118.07421875 267.0234375 C-118.67390472 266.42891785 -119.2735907 265.83439819 -119.89144897 265.22186279 C-123.57100066 261.54276485 -127.03089606 257.72506686 -130.43427086 253.78961754 C-132.2244186 251.74349109 -134.09245036 249.80588492 -136.0324707 247.90161133 C-136.74043289 247.20340775 -137.44839508 246.50520416 -138.17781067 245.7858429 C-138.91964096 245.05858505 -139.66147125 244.33132721 -140.42578125 243.58203125 C-142.04391676 241.98141996 -143.66174563 240.38049861 -145.27929688 238.77929688 C-147.79019053 236.29920573 -150.30331119 233.82151896 -152.82202148 231.34936523 C-181.27517516 203.39308798 -202.77408555 170.29982959 -203.22465515 128.97451782 C-203.46100929 100.90198731 -203.46100929 100.90198731 -200 88 C-199.7848877 87.1965918 -199.56977539 86.39318359 -199.34814453 85.56542969 C-192.71559223 61.83593162 -180.85317333 41.85845034 -164 24 C-163.32710937 23.26265625 -162.65421875 22.5253125 -161.9609375 21.765625 C-120.86128564 -21.64299606 -51.07280075 -28.3801615 0 0 Z M-145.125 52.25 C-166.05881346 75.87015572 -171.59755437 105.35046233 -170 136 C-166.7749286 166.3366472 -148.08860971 189.17794984 -127.1796875 209.8828125 C-126.27678986 210.78192352 -125.37389221 211.68103455 -124.44363403 212.60739136 C-121.58986604 215.44906411 -118.73296526 218.2875505 -115.875 221.125 C-112.09846257 224.87450082 -108.32564797 228.62770048 -104.5546875 232.3828125 C-103.70035126 233.2288504 -102.84601501 234.07488831 -101.96578979 234.94656372 C-101.15449615 235.75455414 -100.34320251 236.56254456 -99.50732422 237.39501953 C-98.80388885 238.09321808 -98.10045349 238.79141663 -97.3757019 239.51077271 C-95.40028753 241.58058431 -93.52176093 243.68588154 -91.65115356 245.84884644 C-88.27336834 249.73436393 -84.7292883 253.39985653 -81.07421875 257.0234375 C-80.42119781 257.67499817 -79.76817688 258.32655884 -79.09536743 258.99786377 C-77.6915409 260.39791486 -76.28656147 261.79681075 -74.88052368 263.19464111 C-72.64929113 265.41298821 -70.42130408 267.63455062 -68.1940918 269.85693359 C-63.46554046 274.57411528 -58.73306799 279.28735076 -54 284 C-48.51079943 289.46551981 -43.02326234 294.93268852 -37.53994751 300.40411377 C-35.35575645 302.58187097 -33.16855206 304.75656961 -30.98120117 306.93115234 C-29.62924505 308.27947252 -28.27743104 309.62793523 -26.92578125 310.9765625 C-26.32609528 311.57108215 -25.7264093 312.16560181 -25.10855103 312.77813721 C-21.4837554 316.40248584 -18.0853103 320.16477763 -14.73231316 324.04086304 C-12.02101706 327.10716798 -9.14081299 329.99062171 -6.23852539 332.875 C-5.28601898 333.82772545 -5.28601898 333.82772545 -4.31427002 334.79969788 C-2.24443053 336.8688486 -0.17108722 338.93444876 1.90234375 341 C3.34987434 342.44566272 4.79718224 343.89154846 6.24427795 345.33764648 C10.03136477 349.12093719 13.82144632 352.90121361 17.61218262 356.68084717 C21.48872884 360.54711645 25.36240324 364.41626075 29.23632812 368.28515625 C36.821428 375.85957012 44.40969819 383.43079924 52 391 C54.81579012 389.71656613 56.8695339 388.38010262 59.05342102 386.19381714 C59.62938019 385.62205246 60.20533936 385.05028778 60.79875183 384.4611969 C61.41857437 383.83575485 62.03839691 383.21031281 62.67700195 382.56591797 C63.33933838 381.90547989 64.0016748 381.24504181 64.68408203 380.56459045 C66.87373211 378.37864626 69.05609364 376.18557945 71.23828125 373.9921875 C72.76242693 372.46684912 74.2869431 370.94188087 75.81181335 369.41726685 C79.01005534 366.21745998 82.20490868 363.01432041 85.3972168 359.80859375 C89.47399242 355.71489321 93.557254 351.62774048 97.64288044 347.54287529 C100.79430524 344.39117737 103.94310741 341.23687014 107.09105492 338.08169937 C108.59464568 336.57494189 110.09882923 335.06877569 111.60363197 333.56322861 C113.71654413 331.44812788 115.82611923 329.32975313 117.93481445 327.21044922 C118.5485643 326.59715256 119.16231415 325.9838559 119.79466248 325.35197449 C122.80900348 322.31563535 125.70915934 319.22453214 128.50871277 315.98831177 C131.82822905 312.15238802 135.32441074 308.54690704 138.92578125 304.9765625 C139.57880219 304.32500183 140.23182312 303.67344116 140.90463257 303.00213623 C142.3084591 301.60208514 143.71343853 300.20318925 145.11947632 298.80535889 C147.35070887 296.58701179 149.57869592 294.36544938 151.8059082 292.14306641 C157.33541141 286.6268587 162.87036657 281.11613199 168.40515137 275.60522461 C173.09242365 270.937752 177.77759571 266.26818994 182.46005249 261.59588623 C184.64424355 259.41812903 186.83144794 257.24343039 189.01879883 255.06884766 C190.37075495 253.72052748 191.72256896 252.37206477 193.07421875 251.0234375 C193.67390472 250.42891785 194.2735907 249.83439819 194.89144897 249.22186279 C198.55976548 245.55399865 202.00664401 241.74745133 205.39969254 237.82419586 C207.3793521 235.56757527 209.46010065 233.44055779 211.59912109 231.33496094 C212.43043549 230.51340515 213.26174988 229.69184937 214.11825562 228.84539795 C214.99446564 227.98376038 215.87067566 227.1221228 216.7734375 226.234375 C218.18473261 224.83611993 219.59601812 223.43785503 221.00676918 222.03905106 C224.44338551 218.6326222 227.88489138 215.23119812 231.33398438 211.83740234 C233.2794869 209.92259794 235.22068805 208.00360939 237.15762329 206.08013916 C238.96678973 204.28391236 240.78179733 202.49354078 242.60385132 200.71038818 C255.84177873 187.52705312 266.36242754 171.91584415 272 154 C272.19609863 153.38302246 272.39219727 152.76604492 272.59423828 152.13037109 C280.77078616 125.26075054 276.86531559 96.04399213 264.15234375 71.34375 C259.96197265 63.52453864 254.95115734 56.5880705 249 50 C247.84371094 48.71996094 247.84371094 48.71996094 246.6640625 47.4140625 C228.30843541 28.10798223 202.55224519 17.28738607 176.16796875 15.78125 C157.5201435 15.34204705 139.83364154 19.72517981 123.25 28.25 C122.58935547 28.58402832 121.92871094 28.91805664 121.24804688 29.26220703 C110.81898745 34.86975302 102.33653636 43.37723844 94.1328125 51.77734375 C92.32302206 53.6075261 90.51312316 55.4376012 88.703125 57.26757812 C85.89629603 60.11810948 83.09196561 62.97106776 80.29003906 65.82641602 C77.5579185 68.60944986 74.81391009 71.38062359 72.0703125 74.15234375 C71.23380157 75.01061264 70.39729065 75.86888153 69.53543091 76.75315857 C68.75046234 77.54480911 67.96549377 78.33645966 67.15673828 79.15209961 C66.13061935 80.1972599 66.13061935 80.1972599 65.08377075 81.26353455 C61.39637657 84.33634503 57.79660661 85.29006348 53.0625 85.3125 C52.24910156 85.32925781 51.43570313 85.34601563 50.59765625 85.36328125 C42.55598173 84.23865609 37.91052276 78.22195487 32.53515625 72.65234375 C31.14317575 71.23574087 29.75117858 69.819154 28.35829067 68.40344334 C24.95065132 64.9351043 21.55963752 61.4505823 18.17358398 57.96118164 C-4.30653343 34.82045394 -28.43918603 17.31042784 -61.7890625 15.83203125 C-95.0730953 15.66256061 -122.27879708 28.21607399 -145.125 52.25 Z " fill="#000000" transform="translate(203,59)"/>
</svg>
