<?xml version="1.0" encoding="UTF-8"?>
<svg version="1.1" xmlns="http://www.w3.org/2000/svg" width="960" height="960">
<path d="M0 0 C1.36876458 -0.00701902 2.73752882 -0.01410587 4.10629272 -0.02125549 C8.46279359 -0.04068492 12.81924144 -0.04569001 17.17578125 -0.046875 C17.91736858 -0.04731686 18.65895592 -0.04775871 19.42301559 -0.04821396 C41.58956369 -0.05514535 63.47699126 0.23439134 85.48828125 3.203125 C86.81449688 3.37203079 88.14083527 3.5399751 89.46728516 3.70703125 C156.08265832 12.19434094 247.12632151 31.56799114 298.48828125 77.203125 C299.02646484 77.68088379 299.56464844 78.15864258 300.11914062 78.65087891 C322.0695586 98.53620773 332.76648602 123.59414883 338.48828125 152.203125 C338.48828125 194.443125 338.48828125 236.683125 338.48828125 280.203125 C127.28828125 280.203125 -83.91171875 280.203125 -301.51171875 280.203125 C-301.51171875 117.74358907 -301.51171875 117.74358907 -266.38671875 81.578125 C-211.00907316 26.89280179 -101.47054799 7.70414703 -27.51171875 1.203125 C-26.06033005 1.07213158 -26.06033005 1.07213158 -24.57962036 0.93849182 C-16.37714714 0.24702362 -8.22936013 0.02851361 0 0 Z M-209.61328125 140.21875 C-225.60361622 156.9329273 -221.51171875 177.98745394 -221.51171875 200.203125 C-63.11171875 200.203125 95.28828125 200.203125 258.48828125 200.203125 C260.39350333 168.56804043 260.39350333 168.56804043 247.39208984 140.95483398 C239.66502561 133.84510253 229.60601699 129.66280267 220.11328125 125.453125 C219.44520447 125.15420349 218.77712769 124.85528198 218.08880615 124.54730225 C124.48752251 82.73686684 21.5198246 69.23294141 -209.61328125 140.21875 Z " fill="#000000" transform="translate(461.51171875,519.796875)"/>
<path d="M0 0 C0.82461731 0.00270905 1.64923462 0.00541809 2.49884033 0.00820923 C15.74918043 0.07397608 28.39563672 1.00534552 41.25 4.4375 C42.31686035 4.71037842 42.31686035 4.71037842 43.40527344 4.98876953 C82.81930676 15.30797947 118.05285798 43.19064267 138.98828125 77.90625 C153.35965445 102.53389173 160.86773752 129.55706892 160.64111328 158.04199219 C160.62500049 160.4374275 160.64109871 162.83117679 160.66015625 165.2265625 C160.68058925 179.58500527 158.8790298 193.70308699 154.5625 207.4375 C154.30758789 208.26088867 154.05267578 209.08427734 153.79003906 209.93261719 C140.83198171 250.38590736 111.03321315 284.56670274 73.53515625 304.2578125 C72.10871136 304.98817744 70.68045504 305.7150207 69.25 306.4375 C68.11433594 307.01242187 66.97867188 307.58734375 65.80859375 308.1796875 C45.46847148 317.62768653 23.02965247 320.86923864 0.8125 320.8125 C-0.02626678 320.81162384 -0.86503357 320.81074768 -1.72921753 320.80984497 C-28.86308949 320.71649264 -53.97400897 314.78793345 -77.75 301.4375 C-78.86632812 300.81101562 -79.98265625 300.18453125 -81.1328125 299.5390625 C-102.4013933 286.98291239 -121.31345015 269.17542034 -134.75 248.4375 C-135.1433252 247.84050293 -135.53665039 247.24350586 -135.94189453 246.62841797 C-152.32721917 221.50784828 -160.14597072 193.12525911 -160.06567383 163.21020508 C-160.06252649 160.77053524 -160.08602139 158.33209816 -160.11132812 155.89257812 C-160.17042663 141.42901675 -158.41163765 127.27566524 -154.0625 113.4375 C-153.80758789 112.61411133 -153.55267578 111.79072266 -153.29003906 110.94238281 C-142.16970707 76.22622093 -118.38412511 45.2639654 -87.75 25.4375 C-87.14236816 25.03885742 -86.53473633 24.64021484 -85.90869141 24.22949219 C-73.65666828 16.27614209 -60.81610737 10.51161768 -46.875 6.1875 C-46.13419189 5.95329346 -45.39338379 5.71908691 -44.63012695 5.4777832 C-29.98703743 1.16115952 -15.19545278 -0.11807343 0 0 Z M-57.75 105.4375 C-74.44651553 123.00685192 -79.29966979 143.28701736 -79.0234375 166.8828125 C-78.53994768 183.71878983 -71.61530771 198.71713975 -60.75 211.4375 C-60.0075 212.4275 -59.265 213.4175 -58.5 214.4375 C-45.0757898 230.22297193 -25.13274389 238.51765845 -4.87890625 240.21875 C15.92851419 241.53158191 35.46062208 234.9242603 51.25 221.4375 C52.735 220.32375 52.735 220.32375 54.25 219.1875 C67.68793385 207.7596726 76.28075458 190.65975961 79.25 173.4375 C80.82943774 149.19912163 77.4616767 128.30061915 61.25 109.4375 C60.78078125 108.83679688 60.3115625 108.23609375 59.828125 107.6171875 C47.36554403 92.00395404 28.4989598 83.45634745 9.0625 81.1875 C-16.55302204 78.41750423 -39.38676923 87.68407182 -57.75 105.4375 Z " fill="#000000" transform="translate(479.75,159.5625)"/>
</svg>
