<?xml version="1.0" encoding="UTF-8"?>
<svg version="1.1" xmlns="http://www.w3.org/2000/svg" width="24" height="24">
<path d="M0 0 C1.875 1 1.875 1 3 3 C3.22460328 5.02142949 3.44644079 7.04362324 3.6171875 9.0703125 C4.1786973 11.90078028 5.88020646 13.15372821 8 15 C8 15.99 8 16.98 8 18 C5.61602565 17.58896994 4.32351105 17.36286996 2.68359375 15.5234375 C0.48408811 13.53316558 -1.21678592 13.37415605 -4.125 12.9375 C-6.8203125 12.52734375 -6.8203125 12.52734375 -9 12 C-10.52491998 8.95016004 -10.23562548 6.3576631 -10 3 C-7.77766882 -1.05248626 -4.20052866 -0.45005664 0 0 Z M-7 4 C-7.16666667 6.5 -7.16666667 6.5 -7 9 C-5.9404123 10.28322547 -5.9404123 10.28322547 -3.5 10.125 C-1.0595877 10.28322547 -1.0595877 10.28322547 0 9 C0.16666667 6.5 0.16666667 6.5 0 4 C-1.0595877 2.71677453 -1.0595877 2.71677453 -3.5 2.875 C-5.9404123 2.71677453 -5.9404123 2.71677453 -7 4 Z " fill="#000000" transform="translate(13,3)"/>
</svg>
