<?xml version="1.0" encoding="UTF-8"?>
<svg version="1.1" xmlns="http://www.w3.org/2000/svg" width="24" height="24">
<path d="M0 0 C10.14444444 -0.61111111 10.14444444 -0.61111111 13.84375 2.03125 C16.51620288 5.71071411 16.58102866 8.4613852 16.3125 12.8125 C16.209375 15.184375 16.10625 17.55625 16 20 C10.72 20 5.44 20 0 20 C0 13.4 0 6.8 0 0 Z M2 2 C2 7.28 2 12.56 2 18 C5.96 18 9.92 18 14 18 C14 14.37 14 10.74 14 7 C12.35 7 10.7 7 9 7 C9 5.35 9 3.7 9 2 C6.69 2 4.38 2 2 2 Z " fill="#000000" transform="translate(4,2)"/>
<path d="M0 0 C1.32 0.66 2.64 1.32 4 2 C4 3.32 4 4.64 4 6 C2.02 6.99 2.02 6.99 0 8 C-0.99 7.01 -1.98 6.02 -3 5 C-1.125 1.125 -1.125 1.125 0 0 Z " fill="#000000" transform="translate(11,11)"/>
</svg>
